<?xml version="1.0" encoding="utf-8"?>
<!-- Generator: Adobe Illustrator 23.0.4, SVG Export Plug-In . SVG Version: 6.00 Build 0)  -->
<svg version="1.1" id="Layer_1" xmlns="http://www.w3.org/2000/svg" xmlns:xlink="http://www.w3.org/1999/xlink" x="0px" y="0px"
	 viewBox="0 0 500 500" style="enable-background:new 0 0 500 500;" xml:space="preserve">
<style type="text/css">
	.st0{fill:#ECBBD8;}
	.st1{fill:#D99DC2;}
	.st2{fill:#FFFFFF;}
	.st3{fill:#E7E0E5;}
	.st4{fill-rule:evenodd;clip-rule:evenodd;fill:#DB85B6;}
	.st5{fill:#ECBBD8;stroke:#1F1E1F;stroke-width:21;stroke-miterlimit:10;}
	.st6{fill:#ECF0F1;}
	.st7{fill:#BCBCC0;}
	.st8{fill:#AD3781;}
	.st9{fill:#E0D493;}
	.st10{opacity:0.3;fill:#5C5C60;enable-background:new    ;}
	.st11{opacity:9.000000e-02;fill:#1F1E1F;}
</style>
<path class="st0" d="M108.1,150.1c0-11.8,9.9-21.4,22.1-21.4h255l98.1,94.5c-12.5-117.5-111.9-209-232.8-209
	C121.2,14.2,16.4,119,16.4,248.3c0,118.7,88.3,216.7,202.8,232l-111.1-107V150.1z"/>
<path class="st1" d="M484.6,248.3c0-8.5-0.5-16.8-1.3-25.1l-98.1-94.5h-255c-12.2,0-22.1,9.6-22.1,21.4v223.2l111.1,107
	c10.2,1.4,20.7,2.1,31.3,2.1C379.8,482.4,484.6,377.6,484.6,248.3z"/>
<g>
	<g>
		<rect x="106" y="180.1" class="st2" width="288" height="192.7"/>
	</g>
	<g>
		<path class="st3" d="M394,180.1H106v-42.9c0-5.5,4.5-10,10-10h268c5.5,0,10,4.5,10,10V180.1z"/>
	</g>
</g>
<circle class="st4" cx="130.4" cy="153.7" r="7.7"/>
<circle class="st4" cx="149.8" cy="153.7" r="7.7"/>
<circle class="st4" cx="169.2" cy="153.7" r="7.7"/>
<path class="st5" d="M466.4,460"/>
<path class="st5" d="M797.5,129"/>
<circle class="st6" cx="196.7" cy="245.9" r="2.5"/>
<path class="st7" d="M363.8,217.8H136.2c-2.4,0-4.4-2-4.4-4.4v0c0-2.4,2-4.4,4.4-4.4h227.6c2.4,0,4.4,2,4.4,4.4v0
	C368.2,215.8,366.2,217.8,363.8,217.8z"/>
<path class="st7" d="M363.8,258.8H136.2c-2.4,0-4.4-2-4.4-4.4l0,0c0-2.4,2-4.4,4.4-4.4h227.6c2.4,0,4.4,2,4.4,4.4l0,0
	C368.2,256.9,366.2,258.8,363.8,258.8z"/>
<path class="st7" d="M363.8,299.8H136.2c-2.4,0-4.4-2-4.4-4.4l0,0c0-2.4,2-4.4,4.4-4.4h227.6c2.4,0,4.4,2,4.4,4.4l0,0
	C368.2,297.9,366.2,299.8,363.8,299.8z"/>
<path class="st7" d="M250.7,340.9H137.5c-2.4,0-4.4-2-4.4-4.4v0c0-2.4,2-4.4,4.4-4.4h113.2c2.4,0,4.4,2,4.4,4.4v0
	C255.1,338.9,253.1,340.9,250.7,340.9z"/>
<g>
	
		<rect x="252.7" y="198" transform="matrix(0.7071 -0.7071 0.7071 0.7071 -58.2067 320.8308)" class="st8" width="210.9" height="65.4"/>
	<polygon class="st9" points="260.5,282.1 248,340.9 306.7,328.3 	"/>
	<polygon class="st8" points="248,340.9 252.1,321.6 267.2,336.8 	"/>
	<polygon class="st10" points="306.7,328.3 248,340.9 432.7,156.1 455.8,179.2 	"/>
</g>
<path class="st11" d="M393.8,372.8h-144V127.2h133.9c5.6,0,10.1,4.5,10.1,10.1V372.8z"/>
</svg>
