<?xml version="1.0" encoding="utf-8"?>
<!-- Generator: Adobe Illustrator 23.0.4, SVG Export Plug-In . SVG Version: 6.00 Build 0)  -->
<svg version="1.1" id="Layer_1" xmlns="http://www.w3.org/2000/svg" xmlns:xlink="http://www.w3.org/1999/xlink" x="0px" y="0px"
	 viewBox="0 0 500 500" style="enable-background:new 0 0 500 500;" xml:space="preserve">
<style type="text/css">
	.st0{fill:#ECBBD8;}
	.st1{fill:#D99DC2;}
	.st2{fill:#FFFFFF;}
	.st3{fill:#E7E0E5;}
	.st4{fill-rule:evenodd;clip-rule:evenodd;fill:#DB85B6;}
	.st5{fill:#C7D6D6;}
	.st6{fill:#565A60;}
	.st7{fill:#D5E0E0;}
	.st8{fill:#565759;}
	.st9{fill:#9BAAAB;}
	.st10{fill:#9A5C88;}
	.st11{fill:#375659;}
	.st12{opacity:9.000000e-02;fill:#1F1E1F;}
</style>
<g>
	<path class="st0" d="M108.1,150.1c0-11.8,9.9-21.4,22.1-21.4h255l98.1,94.5c-12.5-117.5-111.9-209-232.8-209
		C121.2,14.2,16.4,119,16.4,248.3c0,118.7,88.3,216.7,202.8,232l-111.1-107V150.1z"/>
	<path class="st1" d="M484.6,248.3c0-8.5-0.5-16.8-1.3-25.1l-98.1-94.5h-255c-12.2,0-22.1,9.6-22.1,21.4v223.2l111.1,107
		c10.2,1.4,20.7,2.1,31.3,2.1C379.8,482.4,484.6,377.6,484.6,248.3z"/>
	<g>
		<g>
			<rect x="106" y="180.1" class="st2" width="288" height="192.7"/>
		</g>
		<g>
			<path class="st3" d="M394,180.1H106v-42.9c0-5.5,4.5-10,10-10h268c5.5,0,10,4.5,10,10V180.1z"/>
		</g>
	</g>
	<circle class="st4" cx="130.4" cy="153.7" r="7.7"/>
	<circle class="st4" cx="149.8" cy="153.7" r="7.7"/>
	<circle class="st4" cx="169.2" cy="153.7" r="7.7"/>
</g>
<path class="st5" d="M270.5,200.1c-0.5-0.5-1.1-0.8-1.8-0.8h-36.5c-0.7,0-1.3,0.3-1.8,0.8s-0.7,1.2-0.7,1.9l3.5,47.6
	c0.1,1.3,1.2,2.3,2.5,2.3h28.7c1.3,0,2.4-1,2.5-2.3l4.2-47.6C271.2,201.3,271,200.6,270.5,200.1z"/>
<path class="st6" d="M267,249h-34l-6.6,42.3c-0.1,0.5,0,1,0.2,1.5l20.9,41.8v-48.5c-2.5-1-4.3-3.4-4.3-6.3c0-3.7,3-6.8,6.8-6.8
	s6.8,3,6.8,6.8c0,2.9-1.8,5.3-4.3,6.3v48.5l20.9-41.8c0.2-0.5,0.3-1,0.2-1.5L267,249z"/>
<path class="st7" d="M232.2,199.3c-0.7,0-1.3,0.3-1.8,0.8s-0.7,1.2-0.7,1.9l3.5,47.6c0.1,1.3,1.2,2.3,2.5,2.3H250v-52.5H232.2z"/>
<path class="st8" d="M233,249l-6.6,42.3c-0.1,0.5,0,1,0.2,1.5l20.9,41.8v-48.5c-2.5-1-4.3-3.4-4.3-6.3c0-3.7,3-6.8,6.8-6.8v-24
	L233,249L233,249z"/>
<path class="st9" d="M285.7,347h-71.4c-1.4,0-2.5-1.1-2.5-2.5c0-1.4,1.1-2.5,2.5-2.5h71.4c1.4,0,2.5,1.1,2.5,2.5
	C288.2,345.9,287.1,347,285.7,347z"/>
<g>
	<path class="st10" d="M214.3,335.4h-13.2c-1.4,0-2.5,1.1-2.5,2.5v13.2c0,1.4,1.1,2.5,2.5,2.5h13.2c1.4,0,2.5-1.1,2.5-2.5v-13.2
		C216.8,336.6,215.7,335.4,214.3,335.4z"/>
	<path class="st10" d="M298.9,335.4h-13.2c-1.4,0-2.5,1.1-2.5,2.5v13.2c0,1.4,1.1,2.5,2.5,2.5h13.2c1.4,0,2.5-1.1,2.5-2.5v-13.2
		C301.4,336.6,300.3,335.4,298.9,335.4z"/>
</g>
<path class="st11" d="M250,341.7c-34.9,0-63.3-28.4-63.3-63.3c0-1.4,1.1-2.5,2.5-2.5s2.5,1.1,2.5,2.5c0,32.2,26.2,58.3,58.3,58.3
	s58.3-26.2,58.3-58.3c0-1.4,1.1-2.5,2.5-2.5c1.4,0,2.5,1.1,2.5,2.5C313.3,313.3,284.9,341.7,250,341.7z"/>
<path class="st12" d="M394,372.8H250V127.2h133.9c5.6,0,10.1,4.5,10.1,10.1V372.8z"/>
</svg>
