<?xml version="1.0" encoding="utf-8"?>
<!-- Generator: Adobe Illustrator 23.0.4, SVG Export Plug-In . SVG Version: 6.00 Build 0)  -->
<svg version="1.1" id="Layer_1" xmlns="http://www.w3.org/2000/svg" xmlns:xlink="http://www.w3.org/1999/xlink" x="0px" y="0px"
	 viewBox="0 0 500 500" style="enable-background:new 0 0 500 500;" xml:space="preserve">
<style type="text/css">
	.st0{fill:#ECBBD8;}
	.st1{fill:#D99DC2;}
	.st2{fill:#FFFFFF;}
	.st3{fill:#E7E0E5;}
	.st4{fill-rule:evenodd;clip-rule:evenodd;fill:#DB85B6;}
	.st5{fill:#ECBBD8;stroke:#1F1E1F;stroke-width:21;stroke-miterlimit:10;}
	.st6{fill:#ECF0F1;}
	.st7{fill:#EFE2B0;}
	.st8{fill:#414549;}
	.st9{fill:#565A60;}
	.st10{fill:#EDBE6B;}
	.st11{opacity:9.000000e-02;fill:#1F1E1F;}
</style>
<path class="st0" d="M108.1,150.1c0-11.8,9.9-21.4,22.1-21.4h255l98.1,94.5c-12.5-117.5-111.9-209-232.8-209
	C121.2,14.2,16.4,119,16.4,248.3c0,118.7,88.3,216.7,202.8,232l-111.1-107V150.1z"/>
<path class="st1" d="M484.6,248.3c0-8.5-0.5-16.8-1.3-25.1l-98.1-94.5h-255c-12.2,0-22.1,9.6-22.1,21.4v223.2l111.1,107
	c10.2,1.4,20.7,2.1,31.3,2.1C379.8,482.4,484.6,377.6,484.6,248.3z"/>
<g>
	<g>
		<rect x="106" y="180.1" class="st2" width="288" height="192.7"/>
	</g>
	<g>
		<path class="st3" d="M394,180.1H106v-42.9c0-5.5,4.5-10,10-10h268c5.5,0,10,4.5,10,10V180.1z"/>
	</g>
</g>
<circle class="st4" cx="130.4" cy="153.7" r="7.7"/>
<circle class="st4" cx="149.8" cy="153.7" r="7.7"/>
<circle class="st4" cx="169.2" cy="153.7" r="7.7"/>
<path class="st5" d="M466.4,460"/>
<path class="st5" d="M797.5,129"/>
<circle class="st6" cx="196.7" cy="245.9" r="2.5"/>
<g>
	<path class="st7" d="M268.2,313.2c2-6.6,6-12.6,11.3-17.3c10-8.3,16.3-20.9,16.3-34.8c0-25.9-21.6-47.1-48.1-45.8
		c-23.6,1-42.8,20.9-43.5,44.5c-0.3,14.6,6,27.5,16.3,36.2c5.6,4.6,9.6,10.6,11.6,17.3H268.2L268.2,313.2z"/>
	<path class="st2" d="M245.7,313.8h3l-13.3-49.4c0.3,0,0.7,0,1,0c1.7,0,3.3-0.7,4.6-2c0.7-0.7,1.3-1,2.3-1s1.7,0.3,2.3,1
		c2.3,2.7,6.3,2.7,8.6,0c0.7-0.7,1.3-1,2.3-1c0.7,0,1.7,0.3,2.3,1c1.3,1.3,2.7,2,4.6,2c0.3,0,0.7,0,1,0l-12.9,49.4h3l13.6-51.8
		c0-0.7,0-1.3-0.7-1.7c-0.7-0.3-1.3,0-1.7,0.3c-0.7,0.7-1.3,1-2,1c-1,0-1.7-0.3-2.7-1c-1.3-1.3-2.7-2-4.3-2c-1.7,0-3,0.7-4.3,2
		c-1.3,1.3-3.3,1.3-4.6,0c-1-1.3-2.7-2-4.3-2l0,0c-1.7,0-3.3,0.7-4.3,2c-0.7,0.7-1.7,1-2.7,1c-0.7,0-1.7-0.3-2-1
		c-0.3-0.3-1-0.7-1.7-0.3c-0.7,0.3-1,1-0.7,1.7L245.7,313.8z"/>
	<g>
		<path class="st8" d="M239.7,343.7c1.7,4,5.6,7,10.3,7s8.6-3,10.3-7H239.7z"/>
		<path class="st8" d="M262.3,344h-24.2c-3.3,0-6-2.7-6-6v-25.2h36.2V338C268.2,341.3,265.6,344,262.3,344z"/>
	</g>
	<g>
		<path class="st9" d="M267.9,325.4h-35.8c-2,0-3.6-1.7-3.6-3.6l0,0c0-2,1.7-3.6,3.6-3.6h35.8c2,0,3.6,1.7,3.6,3.6l0,0
			C271.6,323.8,269.9,325.4,267.9,325.4z"/>
		<path class="st9" d="M267.9,337h-35.8c-2,0-3.6-1.7-3.6-3.6l0,0c0-2,1.7-3.6,3.6-3.6h35.8c2,0,3.6,1.7,3.6,3.6l0,0
			C271.6,335.4,269.9,337,267.9,337z"/>
	</g>
	<g>
		<path class="st10" d="M250,191.4c-1.7,0-3.3,1.3-3.3,3.3V206c0,1.7,1.3,3.3,3.3,3.3s3.3-1.3,3.3-3.3v-11.3
			C253.3,192.7,251.7,191.4,250,191.4z"/>
		<path class="st10" d="M205.5,211.6c-1.3-1.3-3.3-1.3-4.6,0c-1.3,1.3-1.3,3.3,0,4.6l8,8c1.3,1.3,3.3,1.3,4.6,0s1.3-3.3,0-4.6
			L205.5,211.6z"/>
		<path class="st10" d="M195.3,257.4H184c-1.7,0-3.3,1.3-3.3,3.3l0,0c0,1.7,1.3,3.3,3.3,3.3h11.3c1.7,0,3.3-1.3,3.3-3.3l0,0
			C198.6,259.1,196.9,257.4,195.3,257.4z"/>
		<path class="st10" d="M208.9,297.2l-8,8c-1.3,1.3-1.3,3.3,0,4.6c1.3,1.3,3.3,1.3,4.6,0l8-8c1.3-1.3,1.3-3.3,0-4.6
			C212.2,295.9,210.2,295.9,208.9,297.2z"/>
		<path class="st10" d="M291.1,297.2c-1.3-1.3-3.3-1.3-4.6,0c-1.3,1.3-1.3,3.3,0,4.6l8,8c1.3,1.3,3.3,1.3,4.6,0
			c1.3-1.3,1.3-3.3,0-4.6L291.1,297.2z"/>
		<path class="st10" d="M316,257.4h-11.3c-1.7,0-3.3,1.3-3.3,3.3l0,0c0,1.7,1.3,3.3,3.3,3.3H316c1.7,0,3.3-1.3,3.3-3.3l0,0
			C319.3,259.1,318,257.4,316,257.4z"/>
		<path class="st10" d="M294.5,211.6l-8,8c-1.3,1.3-1.3,3.3,0,4.6c1.3,1.3,3.3,1.3,4.6,0l8-8c1.3-1.3,1.3-3.3,0-4.6
			C297.8,210.3,295.8,210.3,294.5,211.6z"/>
	</g>
</g>
<path class="st11" d="M393.8,372.8h-144V127.2h133.9c5.6,0,10.1,4.5,10.1,10.1V372.8z"/>
</svg>
