<?xml version="1.0" encoding="utf-8"?>
<!-- Generator: Adobe Illustrator 23.0.4, SVG Export Plug-In . SVG Version: 6.00 Build 0)  -->
<svg version="1.1" id="Layer_1" xmlns="http://www.w3.org/2000/svg" xmlns:xlink="http://www.w3.org/1999/xlink" x="0px" y="0px"
	 viewBox="0 0 500 500" style="enable-background:new 0 0 500 500;" xml:space="preserve">
<style type="text/css">
	.st0{fill:#ECBBD8;}
	.st1{fill:#D99DC2;}
	.st2{fill:#FFFFFF;}
	.st3{fill:#E7E0E5;}
	.st4{fill-rule:evenodd;clip-rule:evenodd;fill:#DB85B6;}
	.st5{fill:#ECBBD8;stroke:#1F1E1F;stroke-width:21;stroke-miterlimit:10;}
	.st6{fill:#565A60;}
	.st7{fill:#F0E4AF;}
	.st8{opacity:9.000000e-02;fill:#1F1E1F;}
</style>
<g>
	<path class="st0" d="M108.1,150.1c0-11.8,9.9-21.4,22.1-21.4h255l98.1,94.5c-12.5-117.5-111.9-209-232.8-209
		C121.2,14.2,16.4,119,16.4,248.3c0,118.7,88.3,216.7,202.8,232l-111.1-107V150.1z"/>
	<path class="st1" d="M484.6,248.3c0-8.5-0.5-16.8-1.3-25.1l-98.1-94.5h-255c-12.2,0-22.1,9.6-22.1,21.4v223.2l111.1,107
		c10.2,1.4,20.7,2.1,31.3,2.1C379.8,482.4,484.6,377.6,484.6,248.3z"/>
	<g>
		<g>
			<rect x="106" y="180.1" class="st2" width="288" height="192.7"/>
		</g>
		<g>
			<path class="st3" d="M394,180.1H106v-42.9c0-5.5,4.5-10,10-10h268c5.5,0,10,4.5,10,10V180.1z"/>
		</g>
	</g>
	<circle class="st4" cx="130.4" cy="153.7" r="7.7"/>
	<circle class="st4" cx="149.8" cy="153.7" r="7.7"/>
	<circle class="st4" cx="169.2" cy="153.7" r="7.7"/>
</g>
<line class="st5" x1="1086.7" y1="58.8" x2="755.6" y2="389.8"/>
<path class="st6" d="M236,282.6c0,7.7,6.3,14,14,14c7.7,0,14-6.3,14-14s-6.3-14-14-14C242.3,268.6,236,274.9,236,282.6z"/>
<path class="st6" d="M250,305.9c-15.4,0-28,12.5-28,28v19H278v-19C278,318.5,265.4,305.9,250,305.9z"/>
<path class="st6" d="M212.7,292c0-7.7-6.3-14-14-14s-14,6.3-14,14c0,7.7,6.3,14,14,14S212.7,299.7,212.7,292z"/>
<path class="st6" d="M315.3,292c0-7.7-6.3-14-14-14c-7.7,0-14,6.3-14,14c0,7.7,6.3,14,14,14C309,305.9,315.3,299.7,315.3,292z"/>
<path class="st7" d="M194.1,193.7l-7.1,16.7l-16.5,2.3l11.9,11.3l-2.7,16.6l14.4-7.5l14.4,7.5l-2.7-16.6l11.6-11.3l-16-2.3
	L194.1,193.7z"/>
<path class="st7" d="M257.3,210.5l-7.3-16.7l-7.1,16.7l-16.2,2.3l11.6,11.3l-2.7,16.6l14.4-7.5l14.4,7.5l-2.7-16.6l11.6-11.3
	L257.3,210.5z"/>
<path class="st7" d="M305.9,193.7l-7.1,16.7l-16.2,2.3l11.6,11.3l-2.7,16.6l14.4-7.5l14.4,7.5l-2.7-16.6l11.9-11.3l-16.4-2.3
	L305.9,193.7z"/>
<path class="st6" d="M301.3,315.3c-6.2,0-11.9,2.1-16.5,5.5c1.6,4.1,2.5,8.5,2.5,13.2v19h42.3v-9.6
	C329.6,327.8,316.7,315.3,301.3,315.3z"/>
<path class="st6" d="M170.4,343.2v9.6h42.3v-19c0-4.6,1-9.1,2.5-13.2c-4.6-3.4-10.3-5.5-16.5-5.5
	C183.3,315.3,170.4,327.8,170.4,343.2z"/>
<path class="st8" d="M393.8,372.8h-144V127.2h133.9c5.6,0,10.1,4.5,10.1,10.1V372.8z"/>
</svg>
