<?xml version="1.0" encoding="utf-8"?>
<!-- Generator: Adobe Illustrator 23.0.4, SVG Export Plug-In . SVG Version: 6.00 Build 0)  -->
<svg version="1.1" id="Layer_1" xmlns="http://www.w3.org/2000/svg" xmlns:xlink="http://www.w3.org/1999/xlink" x="0px" y="0px"
	 viewBox="0 0 500 500" style="enable-background:new 0 0 500 500;" xml:space="preserve">
<style type="text/css">
	.dt0{fill:#ECBBD8;}
	.dt1{fill:#D99DC2;}
	.dt2{fill:#FFFFFF;}
	.dt3{fill:#E7E0E5;}
	.dt4{fill-rule:evenodd;clip-rule:evenodd;fill:#DB85B6;}
	.dt5{fill:#ECBBD8;stroke:#1F1E1F;stroke-width:21;stroke-miterlimit:10;}
	.dt6{fill:#565A60;}
	.dt7{opacity:9.000000e-02;fill:#1F1E1F;}
</style>
<g>
	<path class="dt0" d="M108.1,150.1c0-11.8,9.9-21.4,22.1-21.4h255l98.1,94.5c-12.5-117.5-111.9-209-232.8-209
		C121.2,14.2,16.4,119,16.4,248.3c0,118.7,88.3,216.7,202.8,232l-111.1-107V150.1z"/>
	<path class="dt1" d="M484.6,248.3c0-8.5-0.5-16.8-1.3-25.1l-98.1-94.5h-255c-12.2,0-22.1,9.6-22.1,21.4v223.2l111.1,107
		c10.2,1.4,20.7,2.1,31.3,2.1C379.8,482.4,484.6,377.6,484.6,248.3z"/>
	<g>
		<g>
			<rect x="106" y="180.1" class="dt2" width="288" height="192.7"/>
		</g>
		<g>
			<path class="dt3" d="M394,180.1H106v-42.9c0-5.5,4.5-10,10-10h268c5.5,0,10,4.5,10,10V180.1z"/>
		</g>
	</g>
	<circle class="dt4" cx="130.4" cy="153.7" r="7.7"/>
	<circle class="dt4" cx="149.8" cy="153.7" r="7.7"/>
	<circle class="dt4" cx="169.2" cy="153.7" r="7.7"/>
</g>
<line class="dt5" x1="-134.2" y1="67.5" x2="-465.2" y2="398.6"/>
<g>
	<g id="Layer_5_58_">
		<g>
			<g>
				<path class="dt6" d="M-388.3,517.3c-4.5-1.8-5.8-2.9-5.8-4.9c0-1.6,1.2-3.4,4.6-3.4c3,0,5.3,1.2,5.3,1.2
					c0.2,0.1,0.5,0.2,0.8,0.2c0.7,0,1.2-0.4,1.5-1l0.8-2.1c0.3-0.8-0.1-1.4-0.7-1.7c-1.8-0.8-5.5-1.4-5.5-1.4
					c-0.1,0-0.3-0.1-0.3-0.3l0-3.1c0-0.9-0.8-1.7-1.7-1.7h-1.5c-0.9,0-1.7,0.7-1.7,1.7l0,3.2c0,0.2-0.3,0.4-0.4,0.4
					c-4.6,1.1-7.4,4.4-7.4,8.6c0,5.2,4.3,7.6,9,9.4c3.7,1.5,5.3,3,5.3,5.1c0,2.4-2.2,4-5.3,4c-2.6,0-6.2-1.7-6.3-1.7
					c-0.2-0.1-0.5-0.2-0.7-0.2c-0.7,0-1.3,0.4-1.5,1.1l-0.8,2.1c-0.3,0.8,0.2,1.4,0.7,1.7c2.2,1.1,6.5,1.8,6.6,1.8
					c0.1,0,0.3,0.1,0.3,0.3v3.2c0,0.9,0.8,1.7,1.7,1.7h1.5c0.9,0,1.7-0.7,1.7-1.7v-3.4c0-0.3,0.2-0.3,0.3-0.4
					c4.9-1.1,7.8-4.6,7.8-9.1C-379.8,522.6-382.4,519.7-388.3,517.3z"/>
				<path class="dt6" d="M-390.2,480.3c-22.2,0-40.1,18-40.1,40.1c0,22.2,18,40.1,40.1,40.1c22.2,0,40.1-18,40.1-40.1
					C-350.1,498.3-368.1,480.3-390.2,480.3z M-390.2,551.2c-17,0-30.8-13.8-30.8-30.8c0-17,13.8-30.8,30.8-30.8
					c17,0,30.8,13.8,30.8,30.8C-359.4,537.4-373.2,551.2-390.2,551.2z"/>
			</g>
			<g>
				<path class="dt6" d="M-358.3,580c-8.5,4.7-20.3,9.1-32,10.9c-10.4,1.6-30-2.3-30-7c0-1.8,17.2,4.3,27.6,1.6
					c8-2.1,6.8-9.6,2.5-10.6c-4.3-1-29.5-10.2-40.3-10.5c-5.1-0.2-17.6,1.8-23.7,2.8c-2.1,0.3-3.4,0.3-3.5,2.3
					c-0.6,9.2-1.8,28.1-2.4,38c0,0.2,0.3,3,2.6,1c2.5-2.2,6.1-4.6,9.4-3.8c5.2,1.2,49.8,9.3,55.9,7.9c8.8-2,33.7-16.8,38.5-21.4
					C-346.3,584.1-352.1,576.5-358.3,580z"/>
				<path class="dt6" d="M-470,566.8l-23.4-1.2c-1.8-0.1-3.6,1.3-4.1,3l-4.3,38.6c-0.4,1.8,0.7,3.2,2.5,3.3l25.9,0
					c1.8,0.1,3.4-1.3,3.5-3.1l2.8-37.2C-466.8,568.4-468.2,566.9-470,566.8z M-483.8,605.4c-3.6,0-6.5-2.9-6.5-6.5
					c0-3.6,2.9-6.5,6.5-6.5c3.6,0,6.5,2.9,6.5,6.5C-477.3,602.5-480.2,605.4-483.8,605.4z"/>
			</g>
		</g>
	</g>
</g>
<path class="dt6" d="M239.1,334.8c0,6.4-5.2,11.7-11.7,11.7c-6.4,0-11.7-5.2-11.7-11.7c0-6.4,5.2-11.7,11.7-11.7
	C233.9,323.1,239.1,328.3,239.1,334.8z M266.3,323.1c-6.4,0-11.7,5.2-11.7,11.7c0,6.4,5.2,11.7,11.7,11.7s11.7-5.2,11.7-11.7
	C278,328.3,272.8,323.1,266.3,323.1z M276.7,284.2l15.4-54.4H161.4l22.8,54.4C184.3,284.2,276.7,284.2,276.7,284.2z M315.4,206.5
	l-26.7,93.3h-97.9l6.5,15.5h102.9l27-93.3h15l5.8-15.5H315.4z"/>
<path class="dt7" d="M394,372.8H250V127.2h133.9c5.6,0,10.1,4.5,10.1,10.1V372.8z"/>
</svg>
