<?xml version="1.0" encoding="utf-8"?>
<!-- Generator: Adobe Illustrator 23.0.6, SVG Export Plug-In . SVG Version: 6.00 Build 0)  -->
<svg version="1.1" id="Layer_1" xmlns="http://www.w3.org/2000/svg" xmlns:xlink="http://www.w3.org/1999/xlink" x="0px" y="0px"
	 viewBox="0 0 547.5 563.5" style="enable-background:new 0 0 547.5 563.5;" xml:space="preserve">
<style type="text/css">
	.st0{fill:#FA47B3;}
</style>
<g>
	<path class="st0" d="M0,554.5V0h112v554.5L0,554.5L0,554.5z"/>
	<path class="st0" d="M547.5,554.5h-98.7v-59c-33.2,46.4-80.8,68.1-125.6,68.1c-46.1,0-85.7-18.6-118.6-55.8
		c-32.9-37.2-49.4-89.1-49.4-155.6c0-68.1,16-119.8,48-155.3c32-35.4,72.5-53.1,121.4-53.1c44.9,0,83.7,18.7,116.5,56V0h106.3
		L547.5,554.5L547.5,554.5z M263.8,344.9c0,42.9,5.9,73.9,17.8,93c17.1,27.7,41.1,41.6,71.9,41.6c24.5,0,45.3-10.4,62.4-31.2
		c17.1-20.8,25.7-51.9,25.7-93.2c0-46.1-8.3-79.4-25-99.7C400,235.2,378.7,225,352.7,225c-25.2,0-46.3,10-63.4,30.1
		C272.3,275.1,263.8,305.1,263.8,344.9z"/>
</g>
</svg>
