<?xml version="1.0" encoding="utf-8"?>
<!-- Generator: Adobe Illustrator 23.0.6, SVG Export Plug-In . SVG Version: 6.00 Build 0)  -->
<svg version="1.1" id="Layer_1" xmlns="http://www.w3.org/2000/svg" xmlns:xlink="http://www.w3.org/1999/xlink" x="0px" y="0px"
	 viewBox="0 0 445.3 226.4" style="enable-background:new 0 0 445.3 226.4;" xml:space="preserve">
<style type="text/css">
	.st0{fill:none;}
	.st1{enable-background:new    ;}
	.st2{clip-path:url(#SVGID_2_);}
	.st3{fill:#EB7077;}
	.st4{fill:#F6A2AD;}
</style>
<path class="st0" d="M320.6,139.6"/>
<g class="st1">
	<g class="st1">
		<g>
			<defs>
				<path id="SVGID_1_" d="M-248.3,84.7c0,0,0,12.6,0,28.2s0,28.2,0,28.2s0-12.6,0-28.2S-248.3,84.7-248.3,84.7z"/>
			</defs>
			<clipPath id="SVGID_2_">
				<use xlink:href="#SVGID_1_"  style="overflow:visible;"/>
			</clipPath>
			<g class="st2">
				<g>
					<g>
						<g>
							<polyline class="st0" points="-248.3,42.8 -248.3,65.2 -248.3,87.6 -248.3,65.2 -248.3,42.8 							"/>
							<polyline class="st0" points="-248.3,90.5 -248.3,112.9 -248.3,135.3 -248.3,112.9 -248.3,90.5 							"/>
							<polyline class="st0" points="-248.3,138.1 -248.3,160.5 -248.3,182.9 -248.3,160.5 -248.3,138.1 							"/>
						</g>
					</g>
				</g>
			</g>
		</g>
	</g>
	<g class="st1">
		<g>
			<defs>
				<path id="SVGID_3_" d="M-248.3,141c0,0,0-12.6,0-28.2s0-28.2,0-28.2h912.6c0,0,0,12.6,0,28.2s0,28.2,0,28.2
					C390.6,141,25.5,141-248.3,141z"/>
			</defs>
			<clipPath id="SVGID_4_">
				<use xlink:href="#SVGID_3_"  style="overflow:visible;"/>
			</clipPath>
		</g>
	</g>
</g>
<g>
</g>
<g>
</g>
<g>
</g>
<g>
</g>
<g>
</g>
<g>
</g>
<g>
	<g id="XMLID_2_">
		<g>
			<path class="st3" d="M379.8,121.3h65.4c-22.9,7.6-30.1,22.9-34.1,66.2c-2.8,30.9-16.9,38.9-16.9,38.9
				c-10.4,0-20.9-44.6-30.1-91.9C367.8,126.5,372.6,122.5,379.8,121.3z"/>
			<path class="st3" d="M393.9,226h-65.4c11.6,0,19.7-22.1,24.5-50.2c3.2-18.9,6.4-32.5,10.8-41.8C373,181.5,383.4,226,393.9,226z"
				/>
			<path class="st4" d="M363.8,134.1c-4.8,8.8-8,22.9-10.8,41.8c-4.8,28.1-12.8,50.2-24.5,50.2c-12.4-2.8-22.5-50.2-35.7-122.5
				c-0.4-2.4-0.8-4.4-1.2-6.8C301.5,45,312,0,322.4,0h3.6c12.4,2.8,22.5,50.2,35.7,122.5C362.6,126.1,363,130.1,363.8,134.1z"/>
			<path class="st3" d="M260.6,0h61.8c-10.4,0-21.3,45-30.9,97.2C282.3,48.2,271.4,0,260.6,0z"/>
			<path class="st3" d="M291.5,97.2c-0.8,5.2-2,10.4-2.8,16.1C273.8,194.3,265,224,254.6,226.4c-11.6,0-22.9-52.6-32.1-104
				c0-0.8-0.4-1.6-0.4-2.4c0.4-2.4,0.8-4.4,1.2-6.8C238.1,31.7,246.9,2.4,257,0h3.6C271.4,0,282.3,48.2,291.5,97.2z"/>
			<path class="st3" d="M254.6,226h-65.4c11.2,0,22.5-50.2,32.5-106.4c0,0.8,0.4,1.6,0.4,2.4C231.7,173.8,243.3,226,254.6,226z"/>
			<path class="st4" d="M222,120c-10.4,56.2-21.7,106.4-32.5,106.4c-12.4-2.8-22.5-50.2-35.7-122.5c-0.4-2.4-0.8-4.4-1.2-6.8
				C162.2,45,172.6,0,183.1,0h3.6C199.1,2.8,208.8,49,222,120z"/>
			<path class="st3" d="M121.3,0h61.8c-10.4,0-20.9,45-30.9,97.2C142.9,48.2,132.1,0,121.3,0z"/>
			<path class="st3" d="M152.2,97.2c-0.8,5.2-2,10.4-2.8,16.1c-14.9,81.1-23.7,110.8-34.1,113.2c-11.6,0-7.2-2-14.5-34.5
				c-7.2-32.5-12.8-51.8-20.5-61.8c1.2-5.6,2-11.2,3.2-16.9C98.8,31.7,107.6,2.4,117.6,0h3.6C132.1,0,142.9,48.2,152.2,97.2z"/>
			<path class="st3" d="M115.2,226H49.8c10.4,0,20.9-44.6,30.9-96.4c7.2,10,12.8,29.3,20.5,61.8C108.4,224,103.6,226,115.2,226z"/>
			<path class="st4" d="M80.7,129.7c-10,51.8-20.5,96.4-30.9,96.4c-1.2-1.6-8.4,0-15.3-40.2c-6-36.9-16.9-60.2-34.5-64.6h65.4
				C71.9,121.3,76.3,124.1,80.7,129.7z"/>
		</g>
		<g>
		</g>
	</g>
</g>
</svg>
