<?xml version="1.0" encoding="utf-8"?>
<!-- Generator: Adobe Illustrator 23.0.6, SVG Export Plug-In . SVG Version: 6.00 Build 0)  -->
<svg version="1.1" id="Layer_1" xmlns="http://www.w3.org/2000/svg" xmlns:xlink="http://www.w3.org/1999/xlink" x="0px" y="0px"
	 viewBox="0 0 178.1 89.5" style="enable-background:new 0 0 178.1 89.5;" xml:space="preserve">
<style type="text/css">
	.st0{fill:none;}
</style>
<path class="st0" d="M142,65.8"/>
<g>
</g>
<g>
</g>
<g>
</g>
<g>
</g>
<g>
</g>
<g>
</g>
<g>
	<path d="M14.1,18.8h26.4c7.8,0.1,13.4,2.3,16.9,6.7s4.6,10.4,3.4,18c-0.5,3.5-1.5,6.9-3.1,10.2c-1.5,3.4-3.6,6.4-6.3,9.1
		c-3.3,3.4-6.8,5.6-10.5,6.5c-3.7,0.9-7.6,1.4-11.6,1.4H17.4l-3.7,18.7H0L14.1,18.8L14.1,18.8 M25.6,30.1l-5.9,29.6
		c0.4,0.1,0.8,0.1,1.2,0.1c0.5,0,0.9,0,1.4,0c6.3,0.1,11.6-0.6,15.8-1.9c4.2-1.4,7-6.2,8.5-14.4c1.2-6.9,0-10.9-3.5-11.9
		c-3.5-1.1-7.8-1.5-13.1-1.5c-0.8,0.1-1.5,0.1-2.3,0.1C26.9,30.2,26.2,30.2,25.6,30.1L25.6,30.1"/>
	<path d="M76.4,0H90l-3.8,18.8h12.2c6.7,0.1,11.7,1.5,15,4.1c3.4,2.6,4.3,7.6,3,15l-6.6,32.8H95.9l6.3-31.3c0.7-3.3,0.5-5.6-0.6-7
		c-1.1-1.4-3.3-2.1-6.8-2.1l-10.9-0.1l-8.1,40.5H62.2L76.4,0L76.4,0"/>
	<path d="M130.9,18.8h26.4c7.8,0.1,13.4,2.3,16.9,6.7s4.6,10.4,3.4,18c-0.5,3.5-1.5,6.9-3.1,10.2c-1.5,3.4-3.6,6.4-6.3,9.1
		c-3.3,3.4-6.8,5.6-10.5,6.5c-3.7,0.9-7.6,1.4-11.6,1.4h-11.8l-3.7,18.7h-13.7L130.9,18.8L130.9,18.8 M142.4,30.1l-5.9,29.6
		c0.4,0.1,0.8,0.1,1.2,0.1c0.5,0,0.9,0,1.4,0c6.3,0.1,11.6-0.6,15.8-1.9c4.2-1.4,7-6.2,8.5-14.4c1.2-6.9,0-10.9-3.5-11.9
		c-3.5-1.1-7.8-1.5-13.1-1.5c-0.8,0.1-1.5,0.1-2.3,0.1C143.8,30.2,143.1,30.2,142.4,30.1L142.4,30.1"/>
</g>
</svg>
