<?xml version="1.0" encoding="utf-8"?>
<!-- Generator: Adobe Illustrator 23.0.6, SVG Export Plug-In . SVG Version: 6.00 Build 0)  -->
<svg version="1.1" id="Layer_1" xmlns="http://www.w3.org/2000/svg" xmlns:xlink="http://www.w3.org/1999/xlink" x="0px" y="0px"
	 viewBox="0 0 500 500" style="enable-background:new 0 0 500 500;" xml:space="preserve">
<style type="text/css">
	.st0{fill-rule:evenodd;clip-rule:evenodd;fill:url(#SVGID_1_);}
	.st1{fill-rule:evenodd;clip-rule:evenodd;fill:url(#SVGID_2_);}
</style>
<g>
	<g transform="translate(549 -1)">
		
			<linearGradient id="SVGID_1_" gradientUnits="userSpaceOnUse" x1="-533.274" y1="490.5341" x2="-533.274" y2="454.159" gradientTransform="matrix(13.0527 0 0 -13.3215 6662.6372 6543.666)">
			<stop  offset="0" style="stop-color:#FF1C68"/>
			<stop  offset="1" style="stop-color:#DB0068"/>
		</linearGradient>
		<path class="st0" d="M-297.3,9C-430,10.2-536.7,118.9-535.4,251.6c0,0.3,0,0.5,0,0.8c-0.4,132.2,106,239.9,238.1,241.2
			c125.1,0,226.8-98,236.6-222.3c-28.1,17.2-60.5,26.1-93.4,25.6h-67.1l-15.1,147.7h-105.5C-341.7,444.6-297.3,9-297.3,9z"/>
		
			<linearGradient id="SVGID_2_" gradientUnits="userSpaceOnUse" x1="-446.0517" y1="417.0966" x2="-446.0517" y2="380.7216" gradientTransform="matrix(3.232 0 0 -2.8176 1289.7915 1273.1451)">
			<stop  offset="0" style="stop-color:#FF1C68"/>
			<stop  offset="1" style="stop-color:#DB0068"/>
		</linearGradient>
		<path class="st1" d="M-137.5,97.9c30.1,0,44.5,22.6,44.5,45.2c0,32.4-21.1,57.3-57.3,57.3h-60.3l10.6-102.5
			C-200.1,97.9-137.5,97.9-137.5,97.9z"/>
	</g>
</g>
</svg>
