<?xml version="1.0" encoding="utf-8"?>
<!-- Generator: Adobe Illustrator 23.0.6, SVG Export Plug-In . SVG Version: 6.00 Build 0)  -->
<svg version="1.1" id="Layer_1" xmlns="http://www.w3.org/2000/svg" xmlns:xlink="http://www.w3.org/1999/xlink" x="0px" y="0px"
	 viewBox="0 0 611.5 549.8" style="enable-background:new 0 0 611.5 549.8;" xml:space="preserve">
<style type="text/css">
	.st0{fill:#20232A;}
	.st1{fill:#53C1DE;}
</style>
<g>
	<path class="st0" d="M0,273.9c0,46.1,45.1,89.3,116.2,113.6c-14.2,71.5-2.6,129.1,36.3,151.5c40,23.1,99.6,7.1,156.2-42.4
		c55.2,47.4,110.9,66.1,149.7,43.8c40-23.1,52.2-84.7,37.5-158.3c74-24.5,115.5-61.2,115.5-108c0-45.2-45.2-84.2-115.3-108.3
		c15.7-76.6,2.4-132.9-38.3-156.4C419-13.3,362.5,6.4,306.7,55C248.5,3.4,192.9-12.4,152.1,11c-39,22.6-50.2,81.2-35.9,154.1
		C47.5,189,0,229.1,0,273.9z"/>
	<path class="st1" d="M481.4,189.5c-5.5-1.9-11.5-3.8-17.5-5.5c1-4,1.9-8,2.7-11.9c13.2-64.3,4.5-116-25-133
		c-28.3-16.4-74.6,0.7-121.4,41.4c-4.5,3.9-9,8-13.5,12.4c-3-2.8-6-5.5-9-8.3c-49.3-43.8-98.2-61.9-127.7-44.8
		c-28.3,16.4-36.7,65-24.8,125.9c1.1,5.9,2.5,11.9,4,18c-7,2-13.7,4.1-20.1,6.3c-57.5,20-94.2,51.4-94.2,84.1
		c0,33.7,39.4,67.4,99.3,87.8c4.8,1.6,9.6,3.2,14.7,4.6c-1.6,6.6-3.1,13.1-4.3,19.4c-11.4,59.8-2.5,107.3,25.7,123.6
		c29.2,16.8,78.1-0.4,125.9-42.1c3.8-3.3,7.6-6.8,11.3-10.5c4.9,4.7,9.8,9.2,14.7,13.4c45.8,39.7,91.6,55.8,119.9,39.5
		c29.1-16.9,38.3-67.9,26.3-130c-0.9-4.8-2-9.6-3.2-14.5c3.4-1,6.8-2.1,10.1-3.2c62.3-20.6,102.8-54,102.8-88.1
		C577.9,241.3,540.1,209.7,481.4,189.5z"/>
	<path class="st0" d="M467.9,340.2c-3,1-6,1.9-9.1,2.8c-7.5-23.5-16.7-46.5-27.4-68.8c10.3-22,19.1-44.6,26.4-67.8
		c5.5,1.6,10.9,3.3,16.4,5.1c50.2,17.3,80.9,42.9,80.9,62.6c0,21-33.1,48.2-86.9,66.1H467.9z M445.5,384.3
		c5.3,23.5,6.2,47.8,2.6,71.7c-3.2,17.5-9.7,29.1-17.8,33.7c-17.1,9.9-53.7-3-93-36.9c-4.5-3.9-9-8-13.6-12.4
		c16.4-18.3,31.6-37.7,45.4-58.1c24.7-1.9,49.3-5.6,73.6-10.9c1.1,4.5,2.1,8.9,2.9,13.1V384.3z M220.2,488
		c-16.7,5.9-30,6.1-38.3,1.4c-17.1-9.9-24.2-48.1-14.6-99.2c1.1-5.9,2.5-11.9,4-18.1c24.1,5.2,48.6,8.7,73.2,10.6
		c14.3,20.2,30,39.4,46.8,57.6c-3.6,3.3-7.1,6.5-10.3,9.5c-17.7,16.4-38.3,29.4-60.8,38.3V488z M141.9,340.3
		c-23-7.2-44.5-18.6-63.3-33.7c-13.5-11.5-20.2-23-20.2-32.2c0-19.8,29.4-45,78.6-62.2c6-2.1,12.2-4,18.7-5.9
		c7.3,23.3,16.1,46.1,26.3,68.3c-10.5,22.5-19.4,45.7-26.9,69.3c-4.6-1.3-9.1-2.7-13.4-4.2L141.9,340.3z M168.1,161.5
		c-10.2-52.2-3.4-91.5,13.6-101.4c18.2-10.5,58.3,4.5,100.7,42.1c2.7,2.4,5.5,4.9,8.2,7.5c-16.7,18-32.1,37.2-46.2,57.2
		c-24.4,2.2-48.6,6-72.5,11.3C170.5,172.8,169.2,167,168.1,161.5z M402.2,219.1c-5.5-9.2-10.9-18.3-16.4-27.4
		c17.3,2.2,33.9,5.1,49.3,8.6c-5,15.9-10.8,31.5-17.4,46.8c-4.9-9.4-10.1-18.8-15.6-28.3L402.2,219.1z M306.6,126.1
		c11.3,12.2,22,25,32,38.3c-10.6-0.5-21.4-0.7-32.2-0.8c-10.9,0-21.4,0-32,0.8C285,150.4,295.8,137.5,306.6,126.1z M210.5,219.1
		c-5.5,9.3-10.5,18.7-15.3,28.1c-6.7-16-12.5-31.7-17.2-47c15.5-3.5,32-6.3,49.3-8.5C221.4,200.6,215.9,209.8,210.5,219.1z
		 M227.7,357.7c-16.8-1.8-33.5-4.5-50.1-8c4.8-15.5,10.9-31.6,17.6-47.9c4.9,9.4,10,18.8,15.4,28.1
		C216.1,339.3,221.8,348.6,227.7,357.7z M307.3,423.4c-10.9-11.9-21.9-25-32.8-39.1c10.4,0.4,21,0.6,31.7,0.6s21.9-0.3,32.8-0.7
		c-10,13.6-20.6,26.7-31.9,39.2L307.3,423.4z M418,301.1c6.9,15.6,13,31.5,18.2,47.8c-16.7,3.8-33.6,6.6-50.6,8.6
		c5.5-9,10.9-18.2,16.4-27.4c5.5-9.2,10.9-19.2,15.8-28.8L418,301.1z M382.2,318.3c-8.7,14.8-17.2,28.8-26.1,42.1
		c-16.1,1.1-32.8,1.8-49.7,1.8s-33.3-0.5-49.3-1.5c-9.2-13.5-18.1-27.4-26.5-42.1c-8.4-14.5-16.1-29.2-23.1-43.8
		c7-14.6,14.7-29.3,23.1-43.8c8.4-14.6,17.2-28.6,26.3-41.9c16.1-1.2,32.8-1.9,49.3-1.9c16.9,0,33.4,0.7,49.6,1.9
		c9,13.2,17.7,27.4,26.2,41.8c8.4,14.4,16.4,29.3,23.4,43.8c-7.1,14.5-14.9,29.2-23.4,43.8L382.2,318.3z M430.1,59.4
		c18.2,10.5,25.2,52.8,13.8,108.3c-0.7,3.7-1.6,7.3-2.4,10.9c-23.9-5.4-48.2-9.2-72.6-11.4c-14-20.1-29.3-39.3-45.9-57.3
		c4.2-4,8.4-7.8,12.5-11.5c40.1-34.9,77.6-48.7,94.7-38.8V59.4z"/>
	<path class="st1" d="M306.4,225.5c26.8,0,48.6,21.7,48.6,48.5c0,26.8-21.7,48.6-48.5,48.6c-26.8,0-48.6-21.7-48.6-48.5
		c0,0,0,0,0-0.1C257.9,247.3,279.6,225.6,306.4,225.5"/>
</g>
</svg>
