<?xml version="1.0" encoding="utf-8"?>
<!-- Generator: Adobe Illustrator 23.0.6, SVG Export Plug-In . SVG Version: 6.00 Build 0)  -->
<svg version="1.1" id="Layer_1" xmlns="http://www.w3.org/2000/svg" xmlns:xlink="http://www.w3.org/1999/xlink" x="0px" y="0px"
	 viewBox="0 0 505.5 479.8" style="enable-background:new 0 0 505.5 479.8;" xml:space="preserve">
<style type="text/css">
	.st0{fill:#764ABC;}
</style>
<g>
	<path class="st0" d="M350.2,335.1c18.7-1.9,32.8-18,32.2-37.3s-16.7-34.7-36-34.7h-1.3c-19.9,0.6-35.4,17.4-34.7,37.3
		c0.6,9.6,4.5,18,10.3,23.8c-21.9,43.1-55.3,74.6-105.5,101c-34.1,18-69.5,24.4-104.8,19.9c-28.9-3.9-51.5-16.7-65.6-37.9
		c-20.6-31.5-22.5-65.6-5.1-99.7C51.8,283,71.1,265,83.3,256c-2.6-8.4-6.4-22.5-8.4-32.8c-93.3,67.5-83.6,158.9-55.3,202
		c21.2,32.2,64.3,52.1,111.9,52.1c12.9,0,25.7-1.3,38.6-4.5C252.5,456.7,314.8,407.8,350.2,335.1z"/>
	<path class="st0" d="M463.4,255.4c-48.9-57.2-120.9-88.8-203.3-88.8h-10.3c-5.8-11.6-18-19.3-31.5-19.3h-1.3
		c-19.9,0.6-35.4,17.4-34.7,37.3c0.6,19.3,16.7,34.7,36,34.7h1.3c14.2-0.6,26.4-9.6,31.5-21.9h11.6c48.9,0,95.2,14.2,137,41.8
		c32.2,21.2,55.3,48.9,68.2,82.3c10.9,27,10.3,53.4-1.3,75.9c-18,34.1-48.2,52.7-88.1,52.7c-25.7,0-50.2-7.7-63-13.5
		c-7.1,6.4-19.9,16.7-28.9,23.2c27.7,12.9,56,19.9,83,19.9c61.7,0,107.4-34.1,124.8-68.2C513,374.3,511.7,310,463.4,255.4z"/>
	<path class="st0" d="M136.7,346c0.6,19.3,16.7,34.7,36,34.7h1.3c19.9-0.6,35.4-17.4,34.7-37.3c-0.6-19.3-16.7-34.7-36-34.7h-1.3
		c-1.3,0-3.2,0-4.5,0.6c-26.4-43.7-37.3-91.3-33.4-142.8c2.6-38.6,15.4-72,37.9-99.7c18.7-23.8,54.7-35.4,79.1-36
		c68.2-1.3,97.1,83.6,99.1,117.7c8.4,1.9,22.5,6.4,32.2,9.6C374,54,309.7,0,248,0c-57.9,0-111.3,41.8-132.5,103.6
		c-29.6,82.3-10.3,161.4,25.7,223.8C138,331.9,136,339,136.7,346z"/>
</g>
</svg>
