<?xml version="1.0" encoding="utf-8"?>
<!-- Generator: Adobe Illustrator 23.0.6, SVG Export Plug-In . SVG Version: 6.00 Build 0)  -->
<svg version="1.1" id="Layer_1" xmlns="http://www.w3.org/2000/svg" xmlns:xlink="http://www.w3.org/1999/xlink" x="0px" y="0px"
	 viewBox="0 0 558.6 505.5" style="enable-background:new 0 0 558.6 505.5;" xml:space="preserve">
<style type="text/css">
	.st0{fill-rule:evenodd;clip-rule:evenodd;fill:#FDB300;}
	.st1{fill-rule:evenodd;clip-rule:evenodd;fill:#EA6C00;}
	.st2{fill-rule:evenodd;clip-rule:evenodd;fill:#FDAD00;}
	.st3{fill-rule:evenodd;clip-rule:evenodd;fill:#FDD231;}
	.st4{fill-rule:evenodd;clip-rule:evenodd;fill:#FEEEB7;}
</style>
<g>
	<path class="st0" d="M121.9,16.6L279.3,0l157.4,16.6l121.9,163.6L279.3,505.5L0,180.3L121.9,16.6z"/>
	<g transform="translate(59.000000, 211.881084)">
		<polygon class="st1" points="54.1,-31.6 220.3,293.7 -59,-31.6 		"/>
		<polygon class="st1" points="386.5,-31.6 220.3,293.7 499.6,-31.6 		"/>
		<polygon class="st2" points="54.1,-31.6 386.5,-31.6 220.3,293.7 		"/>
	</g>
	<g transform="translate(59.000000, 85.000000)">
		<polygon class="st3" points="220.3,-85 62.9,-68.4 54.1,95.3 		"/>
		<polygon class="st3" points="220.3,-85 377.8,-68.4 386.5,95.3 		"/>
		<polygon class="st2" points="499.6,95.3 377.8,-68.4 386.5,95.3 		"/>
		<polygon class="st2" points="-59,95.3 62.9,-68.4 54.1,95.3 		"/>
		<polygon class="st4" points="220.3,-85 54.1,95.3 386.5,95.3 		"/>
	</g>
</g>
</svg>
