<?xml version="1.0" encoding="utf-8"?>
<!-- Generator: Adobe Illustrator 23.0.6, SVG Export Plug-In . SVG Version: 6.00 Build 0)  -->
<svg version="1.1" id="Layer_1" xmlns="http://www.w3.org/2000/svg" xmlns:xlink="http://www.w3.org/1999/xlink" x="0px" y="0px"
	 viewBox="0 0 723.6 723.6" style="enable-background:new 0 0 723.6 723.6;" xml:space="preserve">
<style type="text/css">
	.st0{fill:#3544B1;}
</style>
<path class="st0" d="M0,361.4C0.2,161.5,162.5-0.3,362.3,0s361.6,162.5,361.3,362.3c-0.3,199.8-162.2,361.3-361.8,361.3
	C161.9,723.5-0.1,561.4,0,361.4L0,361.4z M354.5,485.3c-28.1,0.8-56.1-1.7-83.6-7.5c-20.3-4.1-37.3-17.8-45.7-36.7
	c-8.2-18.9-12.1-48-11.9-87.3c0.1-20.6,1.4-41.1,3.9-61.5c2.4-19.9,4.7-36.3,7.1-49.1l2.5-12.8c0-0.4,0-0.8,0-1.1
	c0-3.6-2.6-6.6-6.1-7.3l-46.7-7.3h-1c-3.4,0-6.3,2.4-7.1,5.7c-0.8,3-1.3,5.2-2.7,12.3c-2.7,13.7-5.1,27.1-7.9,46.7
	c-2.9,21.2-4.6,42.6-5.3,64c-1,14.9-1,29.9,0,44.8c1.1,39.6,7.9,71.2,20.4,94.9c12.5,23.7,33.7,40.7,63.5,51.1
	c29.8,10.4,71.4,15.5,124.7,15.3h6.7c53.3,0.2,94.9-4.9,124.7-15.3c29.8-10.4,50.9-27.4,63.5-51.1c12.5-23.7,19.3-55.3,20.4-94.9
	c1-14.9,1-29.9,0-44.8c-0.6-21.4-2.4-42.8-5.3-64c-2.7-19.3-5.2-32.6-7.9-46.7c-1.5-7.1-1.9-9.3-2.7-12.3c-0.8-3.3-3.7-5.7-7.1-5.7
	h-1.2l-46.7,7.3c-3.6,0.6-6.1,3.7-6.1,7.3c0,0.4,0,0.8,0,1.1l2.5,12.8c2.4,12.9,4.7,29.3,7.1,49.1c2.4,20.4,3.7,40.9,3.8,61.5
	c0.4,39.3-3.6,68.3-11.9,87.2c-8.3,18.9-25.2,32.6-45.4,36.8c-27.5,5.8-55.5,8.3-83.6,7.5L354.5,485.3z"/>
</svg>
