<?xml version="1.0" encoding="utf-8"?>
<!-- Generator: Adobe Illustrator 23.0.6, SVG Export Plug-In . SVG Version: 6.00 Build 0)  -->
<svg version="1.1" id="Layer_1" xmlns="http://www.w3.org/2000/svg" xmlns:xlink="http://www.w3.org/1999/xlink" x="0px" y="0px"
	 viewBox="0 0 761.5 481.8" style="enable-background:new 0 0 761.5 481.8;" xml:space="preserve">
<style type="text/css">
	.st0{fill:#F9DBF1;}
</style>
<g>
	<path class="st0" d="M0,473.9l162-247.3L15.2,0H127l95,152.3L315.2,0h110.9L278.6,230.1l162,243.9H325.3L220.2,310.1L114.8,473.9H0
		L0,473.9z"/>
	<path class="st0" d="M761.5,473.9h-84.4v-50.4c-14,19.6-30.6,34.3-49.7,43.7c-19.1,9.7-38.2,14.5-57.7,14.5
		c-39.3,0-73.2-15.9-101.2-47.6c-28.1-31.7-42.1-76.2-42.1-133c0-58.2,13.6-102.4,41-132.8c27.4-30.4,61.9-45.3,103.8-45.3
		c38.4,0,71.6,15.9,99.6,47.9V0.2h90.9L761.5,473.9L761.5,473.9z M519,294.9c0,36.6,5.1,63,15.2,79.6c14.7,23.7,35.2,35.7,61.4,35.7
		c20.9,0,38.7-9,53.4-26.7s22.1-44.4,22.1-79.6c0-39.3-7.1-67.9-21.4-85.1c-14.3-17.3-32.4-26-54.5-26c-21.6,0-39.6,8.5-54.1,25.8
		C526.4,235.1,519,260.9,519,294.9z"/>
</g>
</svg>
